<?xml version="1.0" encoding="UTF-8"?>
<!DOCTYPE svg PUBLIC "-//W3C//DTD SVG 1.1//EN" "http://www.w3.org/Graphics/SVG/1.1/DTD/svg11.dtd">
<!-- Creator: CorelDRAW -->
<svg xmlns="http://www.w3.org/2000/svg" xml:space="preserve" width="512px" height="123px" version="1.1" style="shape-rendering:geometricPrecision; text-rendering:geometricPrecision; image-rendering:optimizeQuality; fill-rule:evenodd; clip-rule:evenodd"
viewBox="0 0 515.587 123.741"
 xmlns:xlink="http://www.w3.org/1999/xlink"
 xmlns:xodm="http://www.corel.com/coreldraw/odm/2003">
 <defs>
  <style type="text/css">
   <![CDATA[
    .fil2 {fill:#3051A0}
    .fil1 {fill:red}
    .fil0 {fill:white;fill-rule:nonzero}
   ]]>
  </style>
 </defs>
 <g id="Layer_x0020_1">
  <metadata id="CorelCorpID_0Corel-Layer"/>
  <polygon class="fil0" points="0,0 515.587,0 515.587,123.741 0,123.741 "/>
  <path class="fil1" d="M464.628 20.241l30.994 30.901c6.335,6.317 6.335,16.621 0,22.938l-29.509 29.421 -4.262 -4.248 -4.717 -4.704 -3.424 -3.414 -1.815 1.81 -1.61 1.604 -0.837 0.835 -4.641 -4.628 0.228 -0.227 4.338 -4.324 -2.359 -2.352 15.553 -15.507c3.168,-3.159 3.168,-8.311 0,-11.47l-17.037 -16.986 2.359 -2.352 -4.337 -4.324 -0.229 -0.228 4.642 -4.627 0.837 0.834 1.609 1.604 1.815 1.81 3.424 -3.414 4.717 -4.704 4.261 -4.248zm-9.967 92.364l-0.001 0 -3.423 -3.414 3.423 -3.414 3.425 3.414 -3.424 3.414zm-8.446 -1.631l2.207 -2.2 -2.207 -2.2 -2.206 2.2 2.206 2.2zm-9.969 -6.372l1.675 -1.669 -1.674 -1.669 -1.674 1.668 1.673 1.67zm2.322 5.5l2.092 -2.087 -2.092 -2.086 -2.092 2.086 2.092 2.087zm-8.066 -4.021l1.56 -1.556 -1.56 -1.555 -1.56 1.555 1.56 1.556zm-4.717 -2.731l0.646 -0.645 -0.646 -0.645 -0.647 0.645 0.647 0.645zm4.565 -2.504l0.951 -0.948 -0.951 -0.948 -0.951 0.948 0.951 0.948zm4.603 -4.059l1.408 -1.403 -1.408 -1.403 -1.407 1.403 1.407 1.403 0 0zm3.691 3.301l1.522 -1.518 -1.522 -1.517 -1.522 1.517 1.522 1.518zm4.452 -10.128l2.472 -2.466 -2.472 -2.465 -2.474 2.465 2.474 2.466zm-3.044 3.869l1.673 -1.669 -1.673 -1.669 -1.675 1.669 1.675 1.669zm4.07 5.121l2.778 -2.769 -2.778 -2.769 -2.777 2.769 2.777 2.769zm-1.94 6.6l2.359 -2.352 -2.359 -2.352 -2.359 2.352 2.359 2.352zm4.413 -2.352l1.979 -1.973 -1.979 -1.972 -1.978 1.972 1.978 1.973zm4.49 -3.718l2.472 -2.465 -2.472 -2.466 -2.473 2.466 2.473 2.465zm0.989 8.118l3.272 -3.262 -3.272 -3.263 -3.273 3.263 3.273 3.262zm7.19 -0.19l2.206 -2.199 -2.206 -2.2 -2.207 2.199 2.207 2.2zm-6.391 -8.61l4.717 4.703 4.261 -4.248 4.719 -4.704 -4.719 -4.704 -4.717 4.704 -1.816 1.81 -1.609 1.604 -0.836 0.835zm-8.142 -86.029l2.207 2.199 -2.207 2.2 -2.207 -2.2 2.207 -2.199zm-9.968 6.372l1.675 1.669 -1.675 1.67 -1.674 -1.67 1.674 -1.669zm2.321 -5.5l2.093 2.086 -2.093 2.086 -2.093 -2.086 2.093 -2.086zm-8.065 4.02l1.559 1.555 -1.559 1.556 -1.56 -1.556 1.56 -1.555zm-4.718 2.731l0.647 0.646 -0.647 0.644 -0.647 -0.644 0.647 -0.646zm4.566 2.504l0.951 0.948 -0.951 0.949 -0.952 -0.949 0.952 -0.948zm4.603 4.059l1.408 1.403 -1.408 1.404 -1.408 -1.405 1.408 -1.402zm3.69 -3.301l1.522 1.517 -1.522 1.519 -1.521 -1.519 1.521 -1.517zm4.451 10.129l2.473 2.465 -2.473 2.466 -2.472 -2.466 2.472 -2.465zm-3.043 -3.869l1.674 1.668 -1.674 1.669 -1.674 -1.669 1.674 -1.668zm4.071 -5.121l2.777 2.769 -2.778 2.768 -2.777 -2.768 2.778 -2.769zm-1.94 -6.601l2.358 2.352 -2.359 2.352 -2.358 -2.352 2.359 -2.352zm4.413 2.352l1.978 1.972 -1.978 1.973 -1.979 -1.973 1.979 -1.972zm4.489 3.718l2.473 2.466 -2.473 2.465 -2.474 -2.465 2.474 -2.466zm0.989 -8.119l3.272 3.263 -3.272 3.263 -3.272 -3.263 3.272 -3.263zm2.587 -5.006l3.424 3.413 -3.424 3.415 -3.424 -3.415 3.424 -3.413zm4.604 5.197l2.206 2.2 -2.206 2.2 -2.207 -2.2 2.207 -2.2zm-6.392 8.611l4.717 -4.704 4.261 4.248 4.718 4.704 -4.718 4.703 -4.717 -4.703 -1.815 -1.81 -1.608 -1.604 -0.838 -0.834z"/>
  <path class="fil2" d="M15.213 33.576l20.624 0c4.387,0 7.96,1.118 10.718,3.354 2.759,2.235 4.138,5.129 4.138,8.682 0,1.923 -0.48,3.678 -1.441,5.266 -0.962,1.587 -2.278,2.904 -3.95,3.948 2.09,1.004 3.761,2.372 5.015,4.107 1.254,1.735 1.88,3.667 1.88,5.798 0,3.803 -1.409,6.875 -4.231,9.216 -2.82,2.34 -6.529,3.51 -11.126,3.51l-21.627 0 0 -43.881zm20.06 7.522l-10.971 0 0 10.406 10.971 0c1.921,0 3.468,-0.47 4.638,-1.41 1.17,-0.941 1.755,-2.204 1.755,-3.792 0,-1.588 -0.585,-2.853 -1.755,-3.794 -1.17,-0.94 -2.717,-1.41 -4.638,-1.41zm0.877 28.836c2.09,0 3.761,-0.512 5.015,-1.536 1.253,-1.024 1.88,-2.413 1.88,-4.168 0,-1.671 -0.627,-3.03 -1.88,-4.075 -1.254,-1.045 -2.925,-1.567 -5.015,-1.567l-11.848 0 0 11.346 11.848 0z"/>
  <polygon class="fil2" points="66.55,31.695 66.55,77.457 57.961,77.457 57.961,33.576 "/>
  <path class="fil2" d="M77.519 40.91c-1.338,0 -2.486,-0.48 -3.448,-1.442 -0.961,-0.961 -1.442,-2.11 -1.442,-3.448 0,-1.337 0.481,-2.486 1.442,-3.447 0.962,-0.962 2.11,-1.442 3.448,-1.442 1.337,0 2.486,0.48 3.448,1.442 0.961,0.961 1.441,2.11 1.441,3.447 0,1.338 -0.48,2.487 -1.441,3.448 -0.962,0.962 -2.111,1.442 -3.448,1.442zm4.325 3.887l0 32.66 -8.588 0 0 -32.66 8.588 0z"/>
  <path class="fil2" d="M88.551 77.457l0 -32.66 8.587 0 0 2.57c1.255,-1.045 2.644,-1.839 4.17,-2.382 1.526,-0.544 3.187,-0.815 4.983,-0.815 3.761,0 6.854,1.212 9.277,3.635 2.425,2.425 3.637,5.538 3.637,9.341l0 20.311 -8.589 0 0 -19.057c0,-2.048 -0.615,-3.699 -1.848,-4.953 -1.233,-1.253 -2.874,-1.88 -4.921,-1.88 -1.422,0 -2.706,0.282 -3.855,0.846 -1.15,0.565 -2.1,1.369 -2.854,2.413l0 22.631 -8.587 0z"/>
  <polygon class="fil2" points="125.722,77.457 125.722,33.576 134.31,31.695 134.31,58.588 148.414,44.797 158.131,44.797 142.835,59.779 159.071,77.457 148.101,77.457 134.31,62.537 134.31,77.457 "/>
  <polygon class="fil2" points="159.069,41.6 159.069,33.576 197.684,33.576 197.684,41.6 182.953,41.6 182.953,77.457 173.863,77.457 173.863,41.6 "/>
  <path class="fil2" d="M202.194 77.457l0 -32.66 8.589 0 0 3.572c1.044,-1.42 2.309,-2.496 3.792,-3.228 1.484,-0.73 3.124,-1.096 4.922,-1.096 0.835,0.041 1.535,0.114 2.099,0.219 0.565,0.104 1.055,0.282 1.473,0.533l0 7.523c-0.627,-0.293 -1.316,-0.513 -2.068,-0.659 -0.753,-0.146 -1.525,-0.22 -2.319,-0.22 -1.672,0 -3.209,0.418 -4.609,1.254 -1.399,0.836 -2.496,2.048 -3.29,3.636l0 21.126 -8.589 0z"/>
  <path class="fil2" d="M238.05 78.021c-3.511,0 -6.373,-0.93 -8.588,-2.79 -2.215,-1.859 -3.322,-4.273 -3.322,-7.24 0,-3.092 1.19,-5.516 3.572,-7.272 2.383,-1.755 5.663,-2.633 9.843,-2.633 1.337,0 2.674,0.105 4.011,0.314 1.337,0.209 2.654,0.523 3.949,0.94l0 -2.32c0,-1.88 -0.585,-3.3 -1.755,-4.262 -1.17,-0.962 -2.884,-1.442 -5.141,-1.442 -1.378,0 -2.871,0.22 -4.481,0.658 -1.609,0.439 -3.437,1.118 -5.486,2.038l-3.133 -6.331c2.548,-1.171 5.025,-2.049 7.428,-2.634 2.403,-0.585 4.775,-0.877 7.115,-0.877 4.388,0 7.805,1.055 10.249,3.166 2.445,2.11 3.668,5.088 3.668,8.933l0 21.188 -8.464 0 0 -2.257c-1.379,0.961 -2.831,1.672 -4.356,2.131 -1.526,0.46 -3.228,0.69 -5.109,0.69zm-3.699 -10.218c0,1.253 0.543,2.246 1.63,2.978 1.086,0.73 2.528,1.097 4.326,1.097 1.42,0 2.726,-0.178 3.918,-0.533 1.19,-0.355 2.287,-0.867 3.29,-1.536l0 -4.89c-1.045,-0.418 -2.141,-0.721 -3.29,-0.908 -1.15,-0.189 -2.351,-0.282 -3.606,-0.282 -1.963,0 -3.499,0.365 -4.606,1.096 -1.108,0.731 -1.662,1.724 -1.662,2.978z"/>
  <path class="fil2" d="M286.88 77.457l0 -2.696c-1.296,1.045 -2.737,1.829 -4.325,2.351 -1.587,0.522 -3.239,0.783 -4.953,0.783 -2.297,0 -4.46,-0.438 -6.487,-1.316 -2.027,-0.877 -3.793,-2.069 -5.297,-3.573 -1.505,-1.504 -2.685,-3.281 -3.542,-5.329 -0.857,-2.047 -1.286,-4.241 -1.286,-6.582 0,-2.34 0.439,-4.534 1.317,-6.582 0.878,-2.048 2.069,-3.824 3.573,-5.329 1.505,-1.503 3.291,-2.685 5.36,-3.541 2.068,-0.857 4.273,-1.285 6.614,-1.285 1.588,0 3.144,0.219 4.669,0.658 1.526,0.438 2.937,1.077 4.232,1.912l0 -13.352 8.588 -1.881 0 45.762 -8.463 0zm-17.427 -16.362c0,2.634 0.92,4.869 2.759,6.708 1.838,1.838 4.095,2.758 6.77,2.758 1.588,0 3.04,-0.272 4.356,-0.815 1.317,-0.544 2.455,-1.316 3.417,-2.319l0 -12.726c-0.919,-0.961 -2.058,-1.713 -3.417,-2.257 -1.358,-0.543 -2.81,-0.814 -4.356,-0.814 -2.716,0 -4.983,0.909 -6.801,2.727 -1.818,1.818 -2.728,4.064 -2.728,6.738z"/>
  <path class="fil2" d="M331.386 73.382c-2.006,1.63 -4.064,2.821 -6.175,3.573 -2.111,0.752 -4.462,1.129 -7.053,1.129 -2.465,0 -4.774,-0.439 -6.927,-1.317 -2.152,-0.878 -4.011,-2.069 -5.579,-3.574 -1.567,-1.504 -2.799,-3.29 -3.698,-5.359 -0.898,-2.068 -1.348,-4.294 -1.348,-6.676 0,-2.34 0.429,-4.545 1.285,-6.614 0.857,-2.068 2.038,-3.865 3.542,-5.391 1.505,-1.525 3.291,-2.727 5.36,-3.604 2.069,-0.878 4.273,-1.317 6.613,-1.317 2.299,0 4.44,0.45 6.426,1.349 1.984,0.898 3.698,2.12 5.14,3.666 1.442,1.547 2.57,3.396 3.385,5.549 0.815,2.152 1.222,4.481 1.222,6.989l0 2.257 -24.322 0c0.585,2.047 1.714,3.698 3.386,4.952 1.671,1.254 3.635,1.88 5.892,1.88 1.42,0 2.758,-0.229 4.012,-0.689 1.253,-0.46 2.319,-1.108 3.196,-1.943l5.643 5.14zm-14.168 -22.066c-1.964,0 -3.656,0.596 -5.077,1.786 -1.421,1.192 -2.403,2.79 -2.947,4.796l15.985 0c-0.543,-1.923 -1.536,-3.5 -2.978,-4.733 -1.441,-1.233 -3.102,-1.849 -4.983,-1.849z"/>
  <path class="fil1" d="M342.466 77.457l0 -43.881 22.003 0c2.131,0 4.106,0.345 5.923,1.034 1.819,0.69 3.376,1.64 4.671,2.852 1.296,1.212 2.309,2.665 3.041,4.357 0.731,1.692 1.096,3.542 1.096,5.548 0,1.964 -0.365,3.771 -1.096,5.422 -0.732,1.651 -1.756,3.083 -3.073,4.294 -1.316,1.212 -2.872,2.153 -4.669,2.821 -1.798,0.669 -3.762,1.003 -5.893,1.003l-12.913 0 0 16.55 -9.09 0zm21 -36.045l-11.91 0 0 11.973 11.91 0c1.964,0 3.542,-0.543 4.733,-1.63 1.191,-1.087 1.787,-2.529 1.787,-4.326 0,-1.797 -0.596,-3.249 -1.787,-4.356 -1.191,-1.107 -2.769,-1.661 -4.733,-1.661z"/>
  <path class="fil1" d="M384.588 77.457l0 -32.66 8.589 0 0 3.572c1.044,-1.42 2.309,-2.496 3.792,-3.228 1.484,-0.73 3.124,-1.096 4.921,-1.096 0.836,0.041 1.536,0.114 2.1,0.219 0.565,0.104 1.055,0.282 1.473,0.533l0 7.523c-0.627,-0.293 -1.316,-0.513 -2.068,-0.659 -0.753,-0.146 -1.525,-0.22 -2.32,-0.22 -1.671,0 -3.208,0.418 -4.608,1.254 -1.399,0.836 -2.496,2.048 -3.29,3.636l0 21.126 -8.589 0z"/>
  <path class="fil1" d="M408.596 61.158c0,-2.382 0.449,-4.607 1.347,-6.677 0.899,-2.068 2.132,-3.865 3.698,-5.39 1.568,-1.526 3.417,-2.727 5.549,-3.605 2.131,-0.878 4.408,-1.316 6.833,-1.316 2.424,0 4.701,0.438 6.833,1.316 2.13,0.878 3.98,2.079 5.547,3.605 1.567,1.525 2.8,3.322 3.698,5.39 0.899,2.07 1.349,4.295 1.349,6.677 0,2.382 -0.45,4.608 -1.349,6.676 -0.898,2.069 -2.131,3.855 -3.698,5.359 -1.567,1.505 -3.417,2.696 -5.547,3.574 -2.132,0.878 -4.409,1.317 -6.833,1.317 -2.425,0 -4.702,-0.439 -6.833,-1.317 -2.132,-0.878 -3.981,-2.069 -5.549,-3.574 -1.566,-1.504 -2.799,-3.29 -3.698,-5.359 -0.898,-2.068 -1.347,-4.294 -1.347,-6.676zm17.427 9.466c2.507,0 4.638,-0.92 6.393,-2.758 1.755,-1.839 2.633,-4.075 2.633,-6.708 0,-2.675 -0.878,-4.932 -2.633,-6.77 -1.755,-1.838 -3.886,-2.758 -6.393,-2.758 -2.508,0 -4.639,0.92 -6.394,2.758 -1.756,1.838 -2.634,4.095 -2.634,6.77 0,2.633 0.878,4.869 2.634,6.708 1.755,1.838 3.886,2.758 6.394,2.758z"/>
 </g>
</svg>
